<svg xmlns="http://www.w3.org/2000/svg" width="256" height="256"><path fill-opacity=".016" d="M0 128.004v128.004l128.25-.254 128.25-.254.254-127.75L257.008 0H0v128.004m.485.496c0 70.4.119 99.053.265 63.672.146-35.38.146-92.98 0-128C.604 29.153.485 58.1.485 128.5" fill="#1976D2" fill-rule="evenodd"/><path fill-opacity=".307" d="M96.25 37.662c-2.775 1.12-.989 2.063 3.046 1.608 3.61-.407 4.808-.054 7.5 2.212 1.762 1.483 3.204 3.176 3.204 3.762 0 .586-1.013.209-2.25-.839L105.5 42.5l1.884 2.226c1.036 1.225 2.273 1.986 2.75 1.691 1.33-.822 1.097-.086-2.133 6.743-8.348 17.646 2.057 36.968 20.05 37.233 19.134.282 30.37-22.86 19.303-39.755-1.901-2.901-2.245-4.145-1.383-5 .862-.854.968-.64.429.862-.769 2.14-.638 2.064 1.633-.942.917-1.214.999-1.661.217-1.191-2.409 1.447-1.223-1.243 1.489-3.376 2.059-1.62 3.796-2.07 7-1.816 4.285.341 5.62-.44 2.679-1.568-4.26-1.635-7.707-.581-11.938 3.65l-4.258 4.257-4.268-2.257c-5.972-3.158-14.933-3.108-21.306.118l-4.69 2.374-2.058-2.889c-3.373-4.738-9.981-7.082-14.65-5.198m3.563 4.021c.721.289 1.584.253 1.916-.079.332-.332-.258-.568-1.312-.525-1.165.048-1.402.285-.604.604m54.937-.021c.688.278 1.813.278 2.5 0 .688-.277.125-.504-1.25-.504s-1.937.227-1.25.504M61.5 79.929c-2.75.445-7.812 1.602-11.25 2.572L44 84.264v96.362l2.914 2.792 2.915 2.792 6.399-1.605c8.119-2.036 24.182-2.064 32.772-.056 9.032 2.11 21.579 8.54 28.227 14.466 3.076 2.742 6.014 4.985 6.528 4.985.514 0 1.739-.888 2.722-1.974 1.778-1.965 1.8-1.965 4.638.056l2.852 2.031 6.767-5.454c7.214-5.816 15.336-10.264 24.266-13.291 6.964-2.36 29.822-2.645 37.329-.466 4.807 1.396 4.841 1.389 7.5-1.5l2.671-2.902-.278-48.22-.278-48.219-5.153-1.53c-25.628-7.611-54.562-1.196-72.867 16.156l-5.576 5.286-2.924-3.088c-7.727-8.161-22.796-16.583-34.682-19.382-7.816-1.842-22.655-2.64-29.242-1.574" fill="#1976D2" fill-rule="evenodd"/><path fill-opacity=".16" d="M97.5 38c-1.261.542-1.445.859-.5.859.825 0 2.4-.386 3.5-.859 1.261-.542 1.445-.859.5-.859-.825 0-2.4.386-3.5.859m54.5.081c-1.375.525-3.88 2.557-5.567 4.516l-3.066 3.562-4.237-2.208c-7.585-3.954-17.715-3.537-23.263.956l-2.323 1.881-4.092-4.394c-2.25-2.417-4.735-4.392-5.522-4.39-.786.002-.061.838 1.613 1.859 1.673 1.021 3.818 3.039 4.765 4.484 1.678 2.561 1.641 2.773-1.401 8.164-2.869 5.083-3.093 6.138-2.749 12.948.474 9.38 3.716 14.564 11.723 18.748 11.81 6.169 25.58 1.447 31.219-10.707 3.145-6.778 1.885-18.544-2.505-23.395-.877-.969-1.595-2.426-1.595-3.238 0-2.045 5.875-7.404 9.5-8.665 1.65-.574 2.325-1.051 1.5-1.06-.825-.008-2.625.414-4 .939m6.813.602c.721.289 1.584.253 1.916-.079.332-.332-.258-.568-1.312-.525-1.165.048-1.402.285-.604.604M53.5 82c-3.85 1.037-7.367 1.911-7.816 1.942-1.064.075-.384 73.015.701 75.308.769 1.624 3.711 1.75 40.722 1.75 21.941 0 39.95.338 40.019.75.069.412.44 7.275.824 15.25l.699 14.5.292-16.5c.16-9.075.475-15.825.7-15 .356 1.307 5.543 1.465 40.384 1.228 37.05-.253 39.984-.399 40.093-2 .065-.951.462-.378.882 1.272s.817-14.855.882-36.678L212 84.144l-9.544-2.205c-13.809-3.191-30.323-2.497-42.717 1.796-10.535 3.649-17.924 7.964-25.784 15.058l-5.864 5.293-4.29-4.163c-8.869-8.607-21.78-15.46-34.498-18.31-9.94-2.227-26.768-2.046-35.803.387m127.228 89.722c1.775.221 4.925.224 7 .008 2.074-.217.622-.397-3.228-.402-3.85-.004-5.548.173-3.772.394m29.144 8.028c-1.243 1.586-1.208 1.621.378.378 1.666-1.307 2.195-2.128 1.372-2.128-.207 0-.995.787-1.75 1.75m-69 16c-1.243 1.586-1.208 1.621.378.378 1.666-1.307 2.195-2.128 1.372-2.128-.207 0-.995.787-1.75 1.75m-13.228 2.016c-.26.422.668 1.305 2.063 1.964 2.478 1.169 2.496 1.151.76-.767-1.995-2.204-2.157-2.273-2.823-1.197" fill="#1976D2" fill-rule="evenodd"/><path fill-opacity=".172" d="M117.907 44.307c-5.907 3.092-11.12 10.702-10.706 15.63.261 3.111.616 3.54 2.799 3.385 1.375-.098 10.694-.247 20.708-.331 16.912-.141 18.251-.287 18.809-2.044 1.444-4.55-6.574-15.497-13.193-18.014-4.662-1.772-13.693-1.099-18.417 1.374M56.5 81.486c-3.3.731-7.29 1.829-8.867 2.441l-2.867 1.112.467 16.231c.256 8.926.807 17.017 1.224 17.98.703 1.625 3.632 1.75 41.08 1.75h40.324l.433 2.25c.408 2.115.442 2.1.569-.25l.136-2.5 39.851.283c35.441.251 39.997.106 41.172-1.309.97-1.169 1.341-6.016 1.399-18.259l.079-16.667-6.5-1.931c-4.976-1.477-9.782-1.951-20.5-2.019-15.334-.098-22.82 1.506-34.471 7.388-6.866 3.465-17.627 11.47-19.725 14.673l-1.568 2.393-5.618-5.302c-10.202-9.63-21.062-15.212-35.333-18.159-9.178-1.896-22.98-1.942-31.285-.105" fill="#1976D2" fill-rule="evenodd"/></svg>