<svg xmlns="http://www.w3.org/2000/svg" width="256" height="256"><path fill-opacity=".016" d="M0 128.004v128.004l128.25-.254 128.25-.254.254-127.75L257.008 0H0v128.004m.485.496c0 70.4.119 99.053.265 63.672.146-35.38.146-92.98 0-128C.604 29.153.485 58.1.485 128.5" fill="#1976D2" fill-rule="evenodd"/><path fill-opacity=".303" d="M87.25 22.109c-1.787.521-3.25 1.362-3.25 1.868 0 .529 1.283.472 3.025-.136 4.301-1.499 9.458-.234 13.496 3.312 3.769 3.309 4.932 6.387 1.229 3.252L99.5 28.5l1.884 2.226c1.036 1.225 2.35 1.939 2.92 1.586.641-.396.785.014.377 1.076-.391 1.019-.257 1.468.33 1.105 1.615-.998 1.159.17-2.036 5.207-3.828 6.037-5.159 10.992-5.098 18.98.063 8.107 1.363 12.829 5.076 18.435 5.75 8.682 14.826 13.367 25.706 13.272 15.615-.137 26.674-10.193 29.302-26.645 1.551-9.709-.358-17.736-6.189-26.027-1.853-2.636-1.79-6.462.087-5.302.481.297 1.721-.462 2.757-1.687L156.5 28.5l-2.25 1.905c-3.727 3.156-2.527.045 1.268-3.287 4.312-3.786 7.648-4.71 12.087-3.347 1.866.573 3.632.654 3.924.182.292-.473-1.184-1.322-3.28-1.886-6.72-1.809-13.365 1.385-18.555 8.918-1.568 2.276-1.9 2.365-3.953 1.061-6.572-4.178-10.454-5.411-17.241-5.477-7.487-.074-12.003 1.28-17.316 5.192-1.823 1.342-3.417 2.283-3.541 2.09-6.907-10.728-12.613-14.013-20.393-11.742m-1.661 4.747c-.291.47.583.643 1.941.383 1.359-.26 2.47-.645 2.47-.856 0-.773-3.899-.356-4.411.473m8.494-.491c.23.2 1.542.9 2.917 1.555 2.357 1.122 2.389 1.102.559-.365-1.593-1.276-4.848-2.391-3.476-1.19m63.789 1.299c-1.255 1.522-1.159 1.553 1.128.364 3.352-1.742 3.605-2.028 1.789-2.028-.849 0-2.162.749-2.917 1.664M167 26.393c0 .216.698.661 1.552.989.89.341 1.291.173.941-.393-.587-.951-2.493-1.406-2.493-.596M40 78.098c-3.575.465-10.1 1.871-14.5 3.124l-8 2.278-.257 63.54-.258 63.54 3.833 3.743 3.833 3.742 5.87-1.528c30.453-7.932 61.471-.708 84.789 19.747l6.811 5.975 2.744-2.63c3.406-3.263 3.866-3.261 7.299.028l2.772 2.656 4.282-3.94c23.896-21.993 55.276-29.949 86.206-21.857l5.925 1.549 3.833-3.742 3.833-3.743-.258-63.54-.257-63.54-8-2.286c-34.446-9.842-71.313-1.198-96.712 22.675l-6.119 5.751-3.458-3.828c-4.452-4.927-13.717-11.879-22.029-16.527C84.931 79.638 61.114 75.353 40 78.098" fill="#1976D2" fill-rule="evenodd"/><path fill-opacity=".159" d="M85.5 22.975c-1.221.51.209.626 3.669.298 6.943-.657 11.529 1.733 15.227 7.935l2.422 4.061-2.935 4.052c-14.827 20.467 1.035 49.158 26.217 47.422 10.908-.751 19.603-6.639 25.139-17.021 1.841-3.453 2.244-5.771 2.21-12.722-.043-8.917-1.952-14.528-6.712-19.724l-2.037-2.224 2.69-4.065c4.005-6.053 7.984-8.182 14.403-7.707 2.985.221 4.73.034 4-.429-2.07-1.313-8.648-.977-11.694.598-2.885 1.492-8.534 7.355-9.3 9.653-.318.955-1.253.711-3.549-.924C140.473 28.776 134.382 27 127.495 27c-5.165 0-7.451.608-13.125 3.489-6.114 3.106-6.98 3.311-7.87 1.866-2.343-3.803-5.932-7.527-8.569-8.891-3.065-1.585-9.224-1.827-12.431-.489M33.633 79.496c-3.777.782-9.134 2.174-11.905 3.094l-5.037 1.673.711 45.619c.391 25.09 1.023 48.093 1.405 51.118l.693 5.5 53.183.259 53.182.258.418-2.758c.229-1.518.492.841.582 5.241.248 11.99 2.066 13.192 2.27 1.5.09-5.225.351-8.27.58-6.767l.415 2.733 52.924.267c46.274.233 53.001.079 53.537-1.233.704-1.723 2.275-57.89 2.355-84.21L239 84.08l-6.25-1.928c-10.92-3.37-20.735-4.446-35.453-3.887-15.885.603-25.228 2.746-37.97 8.709-10.454 4.892-16.183 8.826-24.577 16.879l-6.75 6.475-6.75-6.475c-8.398-8.057-14.128-11.991-24.577-16.875-13.619-6.366-21.878-8.121-40.173-8.538-11.225-.256-18.049.059-22.867 1.056m157.129 120.211c1.244.239 3.044.23 4-.02s-.062-.446-2.262-.435c-2.2.011-2.982.216-1.738.455m19 0c1.244.239 3.044.23 4-.02s-.062-.446-2.262-.435c-2.2.011-2.982.216-1.738.455m-25.949.976c.721.289 1.584.253 1.916-.079.332-.332-.258-.568-1.312-.525-1.165.048-1.402.285-.604.604m35 0c.721.289 1.584.253 1.916-.079.332-.332-.258-.568-1.312-.525-1.165.048-1.402.285-.604.604m14.624 12.567l-2.937 3.25 3.25-2.937c3.029-2.738 3.71-3.563 2.937-3.563-.172 0-1.635 1.463-3.25 3.25m-173.624-1.567c.721.289 1.584.253 1.916-.079.332-.332-.258-.568-1.312-.525-1.165.048-1.402.285-.604.604m135.456.01c.973.254 2.323.237 3-.037.677-.274-.119-.481-1.769-.461-1.65.02-2.204.244-1.231.498m10 0c.973.254 2.323.237 3-.037.677-.274-.119-.481-1.769-.461-1.65.02-2.204.244-1.231.498m9.481.969c.688.278 1.813.278 2.5 0 .688-.277.125-.504-1.25-.504s-1.937.227-1.25.504m-70.345 18.588l-1.905 2.25 2.25-1.905c2.114-1.79 2.705-2.595 1.905-2.595-.19 0-1.202 1.012-2.25 2.25M127 234.417c0 .87.712 1.583 1.583 1.583s1.406-.534 1.188-1.187c-.618-1.855-2.771-2.162-2.771-.396m5 2.961c0 .207.787.995 1.75 1.75 1.586 1.243 1.621 1.208.378-.378-1.307-1.666-2.128-2.195-2.128-1.372" fill="#1976D2" fill-rule="evenodd"/><path fill-opacity=".171" d="M120.757 28.025c-4.997 1.256-10.606 4.9-14.674 9.534-4.109 4.679-5.939 8.914-6.303 14.588L99.5 56.5l6-.051c42.578-.362 50.364-.652 50.841-1.896.765-1.992-1.21-9.604-3.417-13.177-2.654-4.294-9.383-10.252-13.541-11.989-4.442-1.856-13.908-2.548-18.626-1.362m-85.415 51.39c-3.938.75-9.45 2.124-12.25 3.055L18 84.161v19.87c0 10.929.487 22.143 1.083 24.92L20.166 134h105.601l.603-2.25c.331-1.238.655-4.275.718-6.75.109-4.23.167-4.32.969-1.5.469 1.65 1.118 4.688 1.443 6.75l.591 3.75h105.676l.752-2.25c.413-1.238.958-12.456 1.21-24.931l.459-22.681-6.458-1.994c-21.752-6.719-50.135-4.977-71.23 4.371-8.489 3.762-21.086 12.404-27.256 18.698l-5.256 5.362-6.244-6.078c-11.267-10.968-24.82-18.622-40.81-23.049-11.708-3.24-34.03-4.236-45.592-2.033" fill="#1976D2" fill-rule="evenodd"/></svg>